<?xml version="1.0" encoding="UTF-8"?>
<svg version="1.1" xmlns="http://www.w3.org/2000/svg" width="96" height="96">
<path d="M0 0 C31.68 0 63.36 0 96 0 C96 31.68 96 63.36 96 96 C64.32 96 32.64 96 0 96 C0 64.32 0 32.64 0 0 Z " fill="#FDFDFD" transform="translate(0,0)"/>
<path d="M0 0 C5.35266144 4.14399596 8.91258547 10.9441522 12.125 16.8125 C13.83936362 19.72691815 15.49312458 21.76171838 18 24 C18 23.34 18 22.68 18 22 C18.66 22 19.32 22 20 22 C20.26039062 21.28714844 20.52078125 20.57429688 20.7890625 19.83984375 C22.50716976 15.81060511 24.87653773 12.32250112 27.2734375 8.66796875 C28.26367556 7.13780451 29.22618432 5.58693289 30.1015625 3.98828125 C31 2.375 31 2.375 33 0 C36.75 -0.875 36.75 -0.875 40 -1 C40.66 -0.01 41.32 0.98 42 2 C40.88407791 4.00507927 39.75701288 6.00396096 38.625 8 C37.99851563 9.11375 37.37203125 10.2275 36.7265625 11.375 C36.15679687 12.24125 35.58703125 13.1075 35 14 C34.34 14 33.68 14 33 14 C32.79375 14.804375 32.5875 15.60875 32.375 16.4375 C30.54924359 21.16786887 27.8986855 24.84101646 25 29 C30.61 29 36.22 29 42 29 C42 31.31 42 33.62 42 36 C41 37 41 37 37.40234375 37.09765625 C35.91403133 37.0909822 34.42573568 37.07902183 32.9375 37.0625 C31.79958008 37.05573242 31.79958008 37.05573242 30.63867188 37.04882812 C28.75908129 37.0370068 26.87953101 37.01907078 25 37 C25.54140625 37.83144531 25.54140625 37.83144531 26.09375 38.6796875 C26.5578125 39.40414062 27.021875 40.12859375 27.5 40.875 C27.9640625 41.59429687 28.428125 42.31359375 28.90625 43.0546875 C30 45 30 45 30 47 C30.66 47 31.32 47 32 47 C33.43194595 49.03753976 34.72889327 51.05286967 36 53.1875 C36.35578125 53.76564453 36.7115625 54.34378906 37.078125 54.93945312 C39.05252068 58.19941614 40.70395406 61.41562296 42 65 C39.58225419 66.20887291 38.06668936 66.12059343 35.36669922 66.11352539 C34.40585419 66.11344986 33.44500916 66.11337433 32.45504761 66.11329651 C31.41542877 66.10813522 30.37580994 66.10297394 29.3046875 66.09765625 C28.24210724 66.0962413 27.17952698 66.09482635 26.08474731 66.09336853 C22.68146991 66.08775834 19.27825762 66.07520409 15.875 66.0625 C13.57161553 66.05748631 11.26823003 66.05292318 8.96484375 66.04882812 C3.30987351 66.0377856 -2.34505859 66.02103752 -8 66 C-7.28615741 61.99955077 -6.1777421 59.17842522 -4.0625 55.6875 C-3.53785156 54.80449219 -3.01320313 53.92148438 -2.47265625 53.01171875 C-1.98667969 52.34785156 -1.50070313 51.68398437 -1 51 C-0.34 51 0.32 51 1 51 C1.226875 50.34 1.45375 49.68 1.6875 49 C3.41595024 45.04925658 5.66492287 41.62551449 8 38 C2.72 37.67 -2.56 37.34 -8 37 C-8 30 -8 30 -7 29 C-4.30345146 28.92680379 -1.63308542 28.90757463 1.0625 28.9375 C1.82111328 28.94201172 2.57972656 28.94652344 3.36132812 28.95117188 C5.24091871 28.9629932 7.12046899 28.98092922 9 29 C8.67 27.68 8.34 26.36 8 25 C7.34 25 6.68 25 6 25 C5.34 23.02 4.68 21.04 4 19 C3.34 19 2.68 19 2 19 C0.6328125 17.0234375 0.6328125 17.0234375 -0.875 14.375 C-2.62420257 11.33645893 -4.37687642 8.39854987 -6.4375 5.5625 C-6.953125 4.716875 -7.46875 3.87125 -8 3 C-7.67 2.01 -7.34 1.02 -7 0 C-4.23382717 -1.38308641 -2.92591209 -0.90563946 0 0 Z " fill="#050505" transform="translate(33,16)"/>
<path d="M0 0 C0.66 0 1.32 0 2 0 C6.02954432 5.19599136 9.90779736 10.72339208 12 17 C4.74 17 -2.52 17 -10 17 C-7.77179475 12.54358951 -5.49168755 8.29601301 -3 4 C-2.34 4 -1.68 4 -1 4 C-0.67 2.68 -0.34 1.36 0 0 Z " fill="#EEEEEE" transform="translate(49,57)"/>
</svg>
